<!-- Generated by IcoMoon.io -->
<svg version="1.1" xmlns="http://www.w3.org/2000/svg" width="30" height="32" viewBox="0 0 30 32">
<title>abstract-line</title>
<path d="M10.199 29.862c-2.771-0.783-5.673-1.177-8.487-1.539-0.606-0.076-1.169 0.347-1.212 0.943-0.087 0.597 0.347 1.142 0.91 1.218 2.728 0.348 5.542 0.721 8.184 1.474 0.563 0.163 1.169-0.173 1.343-0.752s-0.173-1.181-0.736-1.345z"></path>
<path d="M18.599 18.766c-4.46-4.58-9.483-8.571-13.857-13.274-0.39-0.439-1.083-0.463-1.516-0.053s-0.476 1.101-0.043 1.54c4.373 4.717 9.396 8.721 13.857 13.314 0.433 0.429 1.126 0.435 1.559 0.013 0.39-0.421 0.433-1.112 0-1.54z"></path>
<path d="M26.957 1.149c0.13 2.622 0.26 5.243 0.389 7.865 0 0.6 0.52 1.064 1.126 1.035s1.039-0.541 1.039-1.142c-0.13-2.626-0.26-5.251-0.389-7.877-0.043-0.6-0.563-1.061-1.169-1.028-0.563 0.033-1.039 0.547-0.996 1.147z"></path>
</svg>
