<!-- Generated by IcoMoon.io -->
<svg version="1.1" xmlns="http://www.w3.org/2000/svg" width="32" height="32" viewBox="0 0 32 32">
<title>cross-wrong-icon</title>
<path d="M4.097 0.703c-0.937-0.937-2.457-0.937-3.394 0s-0.937 2.457 0 3.394l11.903 11.903-11.903 11.903c-0.937 0.937-0.937 2.457 0 3.394s2.457 0.937 3.394 0l11.903-11.903 11.903 11.903c0.937 0.937 2.457 0.937 3.394 0s0.937-2.457 0-3.394l-11.903-11.903 11.903-11.903c0.937-0.937 0.937-2.457 0-3.394s-2.457-0.937-3.394 0l-11.903 11.903-11.903-11.903z"></path>
</svg>
