<!-- Generated by IcoMoon.io -->
<svg version="1.1" xmlns="http://www.w3.org/2000/svg" width="32" height="32" viewBox="0 0 32 32">
<title>linkedin-icon</title>
<path d="M29.631 0h-27.269c-1.306 0-2.362 1.031-2.362 2.306v27.381c0 1.275 1.056 2.313 2.362 2.313h27.269c1.306 0 2.369-1.037 2.369-2.306v-27.387c0-1.275-1.063-2.306-2.369-2.306zM9.494 27.269h-4.75v-15.275h4.75v15.275zM7.119 9.912c-1.525 0-2.756-1.231-2.756-2.75s1.231-2.75 2.756-2.75c1.519 0 2.75 1.231 2.75 2.75 0 1.512-1.231 2.75-2.75 2.75zM27.269 27.269h-4.744v-7.425c0-1.769-0.031-4.050-2.469-4.050-2.469 0-2.844 1.931-2.844 3.925v7.55h-4.738v-15.275h4.55v2.087h0.063c0.631-1.2 2.181-2.469 4.488-2.469 4.806 0 5.694 3.163 5.694 7.275v8.381z"></path>
</svg>
