<!-- Generated by IcoMoon.io -->
<svg version="1.1" xmlns="http://www.w3.org/2000/svg" width="27" height="32" viewBox="0 0 27 32">
<title>location-pin-icon</title>
<path d="M12.774 31.727c-0.095-0.055-0.231-0.136-0.402-0.241-0.342-0.211-0.825-0.521-1.402-0.929-1.152-0.813-2.688-2.020-4.228-3.597-3.065-3.138-6.248-7.852-6.248-13.915 0-7.182 5.822-13.005 13.005-13.005s13.005 5.822 13.005 13.005c0 6.063-3.183 10.777-6.248 13.915-1.54 1.576-3.076 2.783-4.228 3.597-0.577 0.407-1.059 0.718-1.402 0.929-0.171 0.105-0.307 0.186-0.402 0.241-0.048 0.028-0.085 0.049-0.112 0.064l-0.045 0.025c-0.352 0.191-0.787 0.192-1.139-0.001l-0.044-0.025c-0.026-0.015-0.064-0.036-0.112-0.064zM13.5 17.774c2.612 0 4.729-2.117 4.729-4.729s-2.117-4.729-4.729-4.729-4.729 2.117-4.729 4.729c0 2.612 2.117 4.729 4.729 4.729z"></path>
</svg>
