<!-- Generated by IcoMoon.io -->
<svg version="1.1" xmlns="http://www.w3.org/2000/svg" width="32" height="32" viewBox="0 0 32 32">
<title>phone-icon</title>
<path d="M0.419 4.971c0-2.436 1.975-4.411 4.411-4.411h2.017c1.265 0 2.368 0.861 2.675 2.088l1.626 6.504c0.269 1.076-0.133 2.209-1.021 2.874l-1.902 1.427c-0.197 0.148-0.24 0.365-0.185 0.517 1.67 4.558 5.29 8.178 9.848 9.848 0.151 0.055 0.369 0.012 0.517-0.185l1.427-1.902c0.666-0.887 1.798-1.29 2.875-1.020l6.504 1.626c1.227 0.307 2.088 1.41 2.088 2.675v2.017c0 2.436-1.975 4.411-4.411 4.411h-3.309c-12.791 0-23.16-10.369-23.16-23.16v-3.309z"></path>
</svg>
