<!-- Generated by IcoMoon.io -->
<svg version="1.1" xmlns="http://www.w3.org/2000/svg" width="32" height="32" viewBox="0 0 32 32">
<title>play-icon</title>
<path opacity="0.2" fill="#000" d="M16 2.286c7.574 0 13.714 6.14 13.714 13.714s-6.14 13.714-13.714 13.714c-7.574 0-13.714-6.14-13.714-13.714s6.14-13.714 13.714-13.714z"></path>
<path fill="none" stroke-linejoin="miter" stroke-linecap="butt" stroke-miterlimit="4" stroke-width="2.2857" stroke="#000" d="M16 1.143c8.205 0 14.857 6.652 14.857 14.857s-6.652 14.857-14.857 14.857c-8.205 0-14.857-6.652-14.857-14.857s6.652-14.857 14.857-14.857z"></path>
<path d="M12.899 10c-0.837-0.528-1.928 0.074-1.928 1.063v9.874c0 0.99 1.090 1.591 1.928 1.063l7.831-4.937c0.782-0.493 0.782-1.634 0-2.127l-7.831-4.937z"></path>
</svg>
