<!-- Generated by IcoMoon.io -->
<svg version="1.1" xmlns="http://www.w3.org/2000/svg" width="512" height="512" viewBox="0 0 512 512">
<title></title>
<g id="icomoon-ignore">
</g>
<path d="M161.070 464.007c193.16 0 298.841-160.069 298.841-298.839 0-4.5-0.101-9.1-0.301-13.6 20.559-14.867 38.3-33.282 52.39-54.38-19.147 8.519-39.475 14.082-60.29 16.5 21.918-13.138 38.327-33.776 46.191-58.090-20.618 12.219-43.168 20.84-66.682 25.49-15.842-16.833-36.787-27.978-59.599-31.713s-46.219 0.15-66.603 11.052c-20.382 10.903-36.606 28.215-46.163 49.263-9.555 21.048-11.912 44.657-6.705 67.178-41.749-2.095-82.594-12.94-119.883-31.834s-70.193-45.411-96.576-77.837c-13.41 23.12-17.513 50.477-11.476 76.513s21.761 48.797 43.976 63.656c-16.678-0.53-32.99-5.019-47.59-13.1v1.3c-0.015 24.262 8.373 47.78 23.737 66.558s36.758 31.654 60.543 36.442c-15.45 4.228-31.665 4.845-47.39 1.8 6.712 20.866 19.77 39.115 37.353 52.202 17.583 13.086 38.813 20.358 60.727 20.798-37.203 29.224-83.161 45.075-130.47 45-8.39-0.013-16.771-0.527-25.1-1.541 48.061 30.833 103.969 47.209 161.070 47.178z"></path>
</svg>
